<svg xmlns="http://www.w3.org/2000/svg" width="48" height="48" viewBox="0 0 960 960" fill="#394a59"><path d="m815.38,712.7h94.29c-29.51,61.5-74.81,109.67-135.9,144.51-69.94,39.99-155.23,59.99-255.86,59.99s-181.49-16.89-252.32-50.67c-70.83-33.78-123.5-83.62-158.03-149.51-34.53-65.89-51.79-137.62-51.79-215.17,0-85.13,19.62-164.43,58.87-237.9,39.24-73.46,92.96-128.6,161.13-165.41s146.08-55.21,233.72-55.21c74.37,0,140.47,14.85,198.31,44.53,57.84,29.69,102.03,71.88,132.58,126.56,30.54,54.69,45.81,114.45,45.81,179.27,0,77.25-23.17,147.09-69.5,209.49-58.14,78.77-132.65,118.15-223.54,118.15-24.5,0-42.94-4.39-55.33-13.18-12.39-8.78-20.66-21.66-24.79-38.63-34.82,34.54-74.96,51.81-120.4,51.81-48.99,0-89.64-17.34-121.95-52.03-32.31-34.69-48.47-80.81-48.47-138.38,0-71.19,19.48-136.17,58.43-194.95,47.21-71.5,107.71-107.25,181.49-107.25,52.52,0,91.33,20.61,116.42,61.8l11.07-50.44h116.86l-66.84,325.83c-4.14,20.61-6.2,33.93-6.2,39.99,0,7.58,1.69,13.26,5.09,17.04,3.39,3.79,7.45,5.68,12.17,5.68,14.16,0,32.46-8.78,54.89-26.36,30.1-23.02,54.45-53.92,73.04-92.71,18.59-38.78,27.89-78.92,27.89-120.42,0-74.53-26.27-136.86-78.79-187-52.53-50.14-125.87-75.21-220-75.21-79.98,0-147.78,16.74-203.4,50.21-55.63,33.48-97.54,80.59-125.72,141.33-28.19,60.75-42.27,123.99-42.27,189.73s15.71,122.09,47.14,174.5,75.54,90.66,132.35,114.75c56.81,24.08,121.8,36.13,194.99,36.13s131.17-10.08,181.93-30.22c50.75-20.15,91.63-50.37,122.62-90.66Zm-478.51-186.77c0,38.48,7.59,66.8,22.8,84.98,15.2,18.18,34.01,27.27,56.44,27.27,16.82,0,32.6-4.24,47.36-12.72,11.21-6.06,22.28-15.6,33.2-28.63,15.64-18.48,29.14-45.44,40.5-80.89,11.36-35.45,17.04-68.46,17.04-99.07,0-34.23-7.75-60.51-23.24-78.84-15.49-18.33-35.05-27.49-58.65-27.49-25.38,0-48.84,10.08-70.38,30.22-21.55,20.15-37.78,48.85-48.69,86.12-10.92,37.26-16.38,70.29-16.38,99.07Z"/></svg>
