<svg xmlns="http://www.w3.org/2000/svg" width="48" height="48" viewBox="0 0 960 960" fill="#394a59"><path d="m480.05,50.9c-242.95-.08-439.97,196.8-440.05,439.75-.06,189.48,121.21,357.71,300.99,417.54,21.85,4.08,30.01-9.54,30.01-21.2,0-10.49-.36-45.09-.58-81.88-122.38,26.59-148.16-51.86-148.16-51.86-20.03-50.99-48.88-64.39-48.88-64.39-39.92-27.32,2.99-26.73,2.99-26.73,44.22,3.13,67.45,45.31,67.45,45.31,39.26,67.23,102.93,47.86,127.99,36.42,4.01-28.41,15.37-47.79,27.97-58.78-97.39-11-200.46-48.73-200.46-217.29-.65-43.78,15.6-86.13,45.38-118.22-4.59-11.07-19.67-55.8,4.22-116.55,0,0,36.93-11.8,120.99,45.09,72.13-19.72,148.22-19.72,220.35,0,83.62-56.6,120.85-45.09,120.85-45.09,23.89,60.61,8.89,105.33,4.3,116.55,29.7,32.08,45.9,74.37,45.24,118.08,0,169-102.85,206.15-200.83,217.07,15.73,13.62,29.79,40.43,29.79,81.44,0,58.86-.44,106.28-.44,120.7,0,11.73,7.87,25.42,30.16,21.12,230.4-77.08,354.69-326.34,277.61-556.74-59.98-179.29-227.82-300.21-416.88-300.33Z"/><path d="m206.74,682.45c-.95,2.19-4.37,2.84-7.28,1.38s-5.03-4.44-4.01-6.63,4.44-2.84,7.28-1.38,5.03,4.44,3.93,6.63h.07Z"/><path d="m224.59,702.33c-2.11,1.97-6.19,1.02-9.03-2.04-2.76-2.23-3.3-6.22-1.24-9.11,2.19-1.97,6.12-1.02,9.03,2.04s3.42,7.28,1.24,9.11Z"/></svg>
