<?xml version="1.0" encoding="UTF-8"?><svg xmlns="http://www.w3.org/2000/svg" width="48" height="48" viewBox="0 0 960 960" fill="#394a59"><rect x="43.8" y="303.55" width="185.72" height="596.55"/><path d="m139.47,241.64c50.65,0,95.67-39.39,95.67-95.67,0-50.65-39.39-95.67-95.67-95.67-49.93,0-95.67,45.02-95.67,101.3,0,50.65,45.02,90.04,95.67,90.04h0Z"/><path d="m914.46,584.2c0-157.58-33.77-275.76-213.86-275.76-90.04,0-146.32,50.65-168.83,95.67h0v-84.42h-180.09v579.66h180.09v-287.02c0-73.16,16.88-146.32,106.93-146.32s95.67,84.42,95.67,151.95v281.39h180.09v-315.16h0Z"/></svg>
