<svg id="a" xmlns="http://www.w3.org/2000/svg" width="48" height="48" viewBox="0 0 960 960"><defs><style>.b{fill:#fff;}.c{fill:#394a59;}</style></defs><path class="c" d="m871.98,567.54c-11.86,61.78-107.97,129.81-217.8,142.91-57.42,6.86-113.58,13.11-174.12,10.61-98.6-4.37-175.99-23.72-175.99-23.72,0,9.36.62,18.72,1.87,27.46,13.11,97.36,96.11,102.97,175.37,105.47,79.88,2.5,151.03-19.97,151.03-19.97l3.12,72.39s-56.17,29.96-155.4,35.57c-54.92,3.12-122.94-1.25-202.2-22.47-172.26-45.54-201.59-229.02-206.58-415.62-1.25-55.54-.62-107.34-.62-151.03,0-190.34,124.81-246.51,124.81-246.51,63.03-28.7,171-40.56,283.34-41.81h2.5c112.33.62,220.3,13.11,283.33,41.81,0,0,124.82,55.54,124.82,246.51,0,0,1.87,140.42-17.47,238.4"/><path class="b" d="m243.53,282.96c0-27.46,22.47-49.93,49.93-49.93s49.93,22.47,49.93,49.93-22.47,49.93-49.93,49.93c-27.46.62-49.93-21.84-49.93-49.93"/></svg>
