<svg xmlns="http://www.w3.org/2000/svg" width="48" height="48" viewBox="0 0 960 960" fill="#394a59"><path d="m316.75,837.59c332.09,0,513.7-275.12,513.7-513.7,0-7.81-.16-15.59-.51-23.34,35.25-25.48,65.89-57.29,90.06-93.49-32.35,14.38-67.16,24.06-103.68,28.42,37.28-22.35,65.89-57.71,79.39-99.86-34.88,20.68-73.51,35.71-114.65,43.83-32.95-35.09-79.85-57.04-131.79-57.04-99.7,0-180.56,80.86-180.56,180.52,0,14.17,1.58,27.95,4.68,41.17-150.06-7.55-283.11-79.39-372.16-188.64-15.51,26.68-24.45,57.67-24.45,90.75,0,62.64,31.87,117.94,80.34,150.29-29.62-.92-57.45-9.05-81.77-22.58-.03.76-.03,1.5-.03,2.31,0,87.44,62.23,160.44,144.85,176.98-15.17,4.14-31.13,6.35-47.61,6.35-11.62,0-22.93-1.14-33.93-3.26,22.99,71.74,89.64,123.94,168.66,125.4-61.79,48.43-139.64,77.28-224.24,77.28-14.56,0-28.93-.83-43.07-2.5,79.9,51.22,174.78,81.1,276.76,81.1"/></svg>
