<svg xmlns="http://www.w3.org/2000/svg" width="48" height="48" viewBox="0 0 960 960" fill="#394a59"><path d="m480.5,41.37c-242.52,0-439.13,196.61-439.13,439.13s196.61,439.13,439.13,439.13,439.13-196.61,439.13-439.13S723.02,41.37,480.5,41.37Zm-143.73,71.37c-42.77,46.52-76.64,113.43-97.35,192.11h-112.71c43.62-87.24,118.57-156.23,210.07-192.11ZM85.28,480.5c0-46.31,8.71-90.45,23.44-131.74h120.92c-7.9,41.67-12.62,85.7-12.62,131.74s4.71,90.07,12.6,131.74h-120.91c-14.73-41.29-23.44-85.42-23.44-131.74Zm41.42,175.65h112.71c20.73,78.68,54.58,145.59,97.35,192.1-91.5-35.88-166.44-104.86-210.07-192.1Zm331.84,217.49c-75.15-14.16-140.45-99.9-173.87-217.49h173.87v217.49Zm0-261.4h-184.33c-8.45-41.45-13.28-85.76-13.28-131.74s4.83-90.29,13.28-131.74h184.33v263.48Zm0-307.39h-173.87c33.42-117.58,98.72-203.33,173.87-217.49v217.49Zm375.75,0h-112.71c-20.73-78.68-54.58-145.59-97.35-192.11,91.5,35.88,166.44,104.86,210.07,192.11ZM502.46,87.36c75.15,14.16,140.45,99.9,173.87,217.49h-173.87V87.36Zm0,261.4h184.33c8.45,41.45,13.28,85.76,13.28,131.74s-4.83,90.29-13.28,131.74h-184.33v-263.48Zm0,524.88v-217.49h173.87c-33.42,117.58-98.72,203.33-173.87,217.49Zm121.77-25.38c42.77-46.53,76.63-113.43,97.35-192.1h112.71c-43.62,87.24-118.57,156.23-210.07,192.1Zm107.13-236.02c7.9-41.67,12.62-85.7,12.62-131.74s-4.71-90.07-12.6-131.74h120.92c14.71,41.29,23.42,85.43,23.42,131.74s-8.71,90.45-23.44,131.74h-120.92Z"/></svg>
