<?xml version="1.0" encoding="utf-8"?>
<!-- Generator: Adobe Illustrator 27.6.1, SVG Export Plug-In . SVG Version: 6.00 Build 0)  -->
<svg version="1.1" id="Layer_1" xmlns="http://www.w3.org/2000/svg" xmlns:xlink="http://www.w3.org/1999/xlink" x="0px" y="0px"
	 viewBox="0 0 7.5 7.5" style="enable-background:new 0 0 7.5 7.5;" xml:space="preserve">
<g>
	<path d="M1,5.1C1,5,1,4.9,1,4.8c0,0,0,0,0.1,0c0.1,0,0.1,0.1,0.1,0.1C1.3,5,1.4,5.1,1.5,5.2c0,0,0.1,0,0.1,0c0.2,0,0.3,0,0.5,0
		c0.1,0,0.1,0,0.1,0.1c0,0.2,0,0.4,0,0.6c0,0,0,0.1-0.1,0.1C1.9,6,1.8,6,1.6,6c-0.1,0-0.2,0-0.2-0.1c0,0,0,0-0.1-0.1
		c-0.1,0-0.2,0-0.4,0c0,0,0,0,0,0C1,5.9,1,6,1,6.1C1,6.1,1,6.1,1,6.2c0.1,0,0.1,0,0.2,0c0.1,0,0.2,0.1,0.2,0.2
		c0,0.1,0.1,0.1,0.2,0.1c0,0,0-0.1,0-0.1c0-0.1,0-0.1,0.1-0.1c0,0,0.1,0,0.1,0.1c0,0,0,0.1,0,0.1c0,0,0,0,0.1,0c0.2,0,0.2,0,0.2-0.2
		c0-0.1,0-0.1,0.1,0c0,0,0.1,0,0.1,0.1c0,0.1,0.1,0.1,0.2,0.1c0,0,0.1,0,0.1,0c0.1,0,0.2,0,0.2-0.1c0,0,0,0,0-0.1
		C3,6.1,3.1,6,3.1,5.8c0,0,0-0.1,0-0.1c-0.1,0-0.1-0.1-0.2,0c0,0-0.1,0.1-0.1,0.1C2.7,5.9,2.6,6,2.6,6C2.5,6,2.4,6,2.4,6
		c0-0.1,0.1-0.2,0.1-0.2c0.1,0,0.1-0.1,0.1-0.2c0-0.1,0-0.1,0-0.2c0-0.1,0-0.1,0.1-0.1c0,0,0.1,0,0.1,0.1c0,0.1,0.1,0.1,0.2,0.1
		c0.1,0,0.1,0,0.2,0c0.4,0,0.8,0,1.2,0c0.1,0,0.3,0,0.4,0c0.1,0,0.1,0,0.1,0.1c0,0.2,0,0.4,0,0.6c0,0.1,0,0.2-0.1,0.3
		C4.7,6.5,4.7,6.5,4.6,6.6C4.5,6.6,4.5,6.7,4.4,6.7c-1,0-2,0-3,0c-0.2,0-0.3,0-0.4-0.2C0.9,6.4,0.8,6.4,0.7,6.4c0,0-0.1,0-0.1,0
		c0,0-0.1-0.1-0.1-0.1c0,0,0-0.1,0.1-0.1c0.1,0,0.1-0.1,0.1-0.2c0-0.2,0-0.4,0-0.5c0-0.1,0-0.2-0.1-0.2C0.5,5.1,0.4,5,0.3,4.9
		c0-0.1-0.1-0.1-0.1-0.2c0-0.1,0-0.3,0-0.4c0-0.2,0-0.2,0.2-0.2c0.1,0,0.1,0,0.2,0c0,0,0.1,0,0.1-0.1c0-0.1,0.1-0.2,0.3-0.2
		c0.1,0,0.3,0,0.4,0c0,0,0.1,0,0.1-0.1c0-0.1,0-0.1,0-0.2c0-0.3,0-0.6,0-0.9c0-0.1,0-0.2-0.1-0.2c0,0,0,0-0.1,0
		c-0.1-0.1-0.1-0.1,0-0.2c0.1,0,0.1-0.1,0.2-0.2c0,0,0.1-0.1,0.1-0.1c0,0,0.1,0,0.1,0.1c0,0.1,0.1,0.1,0.2,0.1c0.1,0,0.3,0,0.4,0
		c0.1,0,0.1,0,0.1,0.1c0,0.1,0,0.1-0.1,0.1c-0.2,0-0.3,0-0.5,0c-0.1,0-0.1,0-0.1,0.1c0,0.3,0,0.6,0,0.9c0,0.1,0,0.1,0.1,0.2
		c0.1,0,0.1,0,0.2,0c0.1,0,0.1,0,0.1,0.1c0,0.1,0.1,0.1,0.2,0.1c0.2,0,0.5,0,0.7,0c0,0,0.1,0,0.1-0.1c0-0.1,0-0.1,0-0.2
		c0,0,0.1,0,0.2,0c0.1,0,0.3,0,0.4,0c0.1,0,0.1,0,0.1-0.1C3.8,3.3,3.9,3,4.2,3c0,0,0.1,0,0.1,0c0.2,0,0.4,0,0.6,0c0.1,0,0.1,0,0,0.1
		C4.8,3.2,4.6,3.3,4.4,3.4c-0.1,0-0.1,0-0.2,0.1C4.2,3.5,4.1,3.6,4,3.7c0,0,0,0,0,0.1c0,0.1,0,0.1,0.1,0.1c0.2,0,0.4,0,0.6,0
		c0,0,0.1,0,0.1,0c0.1,0,0.2,0.1,0.2,0.2c0,0,0,0,0,0c0,0,0.1,0,0.1,0c0,0,0,0,0,0c0.1-0.1,0.1-0.2,0.3-0.2c0.2,0,0.2,0,0.2-0.2
		c0-0.1,0-0.3,0-0.4c0-0.3,0-0.6,0-1c0,0,0-0.1-0.1-0.1c-0.2,0-0.4,0-0.6,0c-0.1,0-0.1,0-0.1,0.1c0,0,0,0,0,0.1c0,0.1,0,0.1-0.1,0.1
		c-0.5,0-1.1,0-1.6,0c0,0-0.1,0-0.1,0c0,0,0-0.2,0.1-0.2c0,0,0.1,0,0.1,0c0.1,0,0.2,0,0.4,0c0,0,0.1,0,0.1,0C3.9,2,4.1,1.8,4.3,1.6
		c0.1-0.1,0.1-0.1,0.1-0.2c0-0.1,0.1-0.2,0.2-0.3C4.7,0.9,4.9,0.8,5,0.7c0,0,0.1-0.1,0.1-0.1c0.1,0,0.2,0,0.2,0.1
		c0.1,0.1,0,0.2,0,0.3C5.2,1.1,5.1,1.2,5,1.2c0,0-0.1,0-0.1,0.1c-0.1,0-0.2,0.1-0.3,0.1C4.5,1.6,4.4,1.7,4.3,1.8c0,0,0,0.1-0.1,0.2
		c0,0,0,0,0.1,0c0.1,0,0.2,0,0.4,0c0.3,0,0.6,0,0.9,0c0.3,0,0.6,0.3,0.6,0.6c0,0.2,0,0.4,0,0.7c0,0.1,0,0.1-0.1,0.1
		c-0.1,0-0.1,0-0.1,0.1c0,0.1,0,0.3,0,0.4c0,0.1,0,0.1,0.1,0.2C6,4.1,6,4.2,6,4.2c0.1,0.1,0.2,0.1,0.3,0.1c0.1,0,0.1,0,0.2,0
		c0.1,0,0.1,0,0.2,0.1C6.9,4.6,7,4.7,7,4.9C7,4.9,7,5,7.1,5c0.2,0.2,0.2,0.4,0.1,0.6c0,0.1,0,0.1-0.1,0.2c-0.1,0.1,0,0.3,0,0.4
		c0.1,0.1,0.1,0.3,0,0.4C7,6.8,6.9,6.9,6.7,7.1c-0.1,0-0.1,0.1-0.2,0.1c-0.2,0-0.4,0-0.6,0c-0.1,0-0.1,0-0.1-0.1c0-0.1,0-0.3,0-0.4
		c0-0.1,0.1-0.2,0.1-0.2c0.2-0.3,0.5-0.5,0.8-0.7c0.1-0.1,0.1-0.1,0.1-0.2c0-0.1,0-0.3,0-0.4C6.8,5.1,6.7,5,6.7,5C6.6,5,6.5,5,6.5,5
		C6.4,5,6.3,4.9,6.3,4.9c0,0-0.1-0.1-0.1-0.1c-0.1,0-0.2,0-0.3,0c0,0-0.1,0-0.1,0.1c0,0.1,0,0.2,0,0.3c0,0,0,0.1-0.1,0.1
		c-0.8,0-1.6,0-2.4,0c-0.1,0-0.3,0-0.3-0.1C3,5,2.9,5,2.8,5C2.6,5,2.3,5,2,5C1.9,5,1.8,4.9,1.9,4.8c0,0,0,0,0.1,0c0.2,0,0.3,0,0.5,0
		c0.3,0,0.7,0,1,0c0,0,0.1,0,0.2,0c0.1,0,0.1,0,0.1,0.1C3.8,5,3.8,5,3.9,5c0.5,0,0.9,0,1.4,0c0.1,0,0.1,0,0.1-0.1c0-0.1,0-0.1,0-0.2
		c0-0.1,0-0.1,0.1-0.2c0.1,0,0.1-0.1,0.1-0.2c0,0,0,0-0.1,0c-0.2,0-0.5,0-0.7,0c-0.1,0-0.1,0-0.2,0c-0.1,0-0.1-0.1-0.2-0.1
		C4.4,4.1,4.3,4.1,4.3,4.1c-0.6,0-1.2,0-1.8,0c-0.1,0-0.2,0-0.3-0.2c0,0-0.1-0.1-0.1-0.1c0,0-0.1,0-0.1,0C1.7,3.8,1.6,4,1.4,4.2
		c-0.1,0.1,0,0.3,0.1,0.4c0.1,0,0.1,0.1,0.1,0.2c0,0,0,0.1,0,0c-0.1,0-0.1-0.1-0.2-0.1C1.3,4.6,1.3,4.5,1.2,4.4C1.1,4.3,1,4.3,1,4.4
		c0,0,0,0,0,0c0,0.1,0,0.1-0.2,0.1c-0.1,0-0.2,0-0.3,0c0,0-0.1,0-0.1,0.1c0,0,0,0.1,0,0.1C0.6,4.9,0.7,5,0.8,5.1
		C0.9,5.1,0.9,5.1,1,5.1z M3.8,6.4C3.8,6.4,3.8,6.4,3.8,6.4c0.2,0,0.4,0,0.6,0c0,0,0.1,0,0.1-0.1c0-0.1,0-0.2,0-0.4
		c0-0.1,0-0.1-0.1-0.1C4.3,5.9,4.2,6,4.2,6.1c0,0.1-0.1,0.1-0.1,0.1C4,6.2,4,6.2,4,6.1C4,6,4,5.9,4,5.8c0,0,0,0,0-0.1
		c-0.1,0-0.2,0-0.2,0.1c0,0.1,0,0.1-0.1,0.1c0,0,0,0,0-0.1c0,0,0-0.1,0-0.1c0-0.1-0.1-0.1-0.2-0.1c-0.1,0,0,0.1,0,0.1
		c0,0.1,0,0.2-0.1,0.3c0,0-0.1,0.1-0.1,0.1c0,0.1,0,0.1,0.1,0.1c0,0,0,0,0.1,0C3.4,6.4,3.6,6.4,3.8,6.4z M6.7,6.2
		c-0.1,0-0.2,0-0.3,0c-0.1,0-0.1,0-0.1,0.1c0,0.1,0,0.2,0,0.3c0,0.1,0,0.1,0.1,0.2c0.1,0,0.2,0,0.3-0.1C6.8,6.5,6.9,6.5,7,6.4
		C7,6.4,7,6.3,7.1,6.2c0,0,0-0.1-0.1-0.1C6.9,6.2,6.8,6.2,6.7,6.2z M1.7,5.5C1.7,5.5,1.7,5.5,1.7,5.5C1.6,5.5,1.5,5.5,1.5,5.4
		c0,0,0,0,0,0c0,0.1,0,0.2,0,0.3c0,0,0,0,0,0C1.6,5.7,1.7,5.7,1.7,5.5z"/>
	<path d="M2.6,3.6c-0.1,0-0.2,0-0.3,0C2.1,3.5,2,3.4,1.9,3.3c0,0,0-0.1,0-0.1c0.2-0.2,0.4-0.4,0.6-0.5c0.1-0.1,0.1-0.3,0.1-0.4
		c0,0,0,0,0,0C2.4,2.2,2.3,2.1,2.3,2C2.2,1.9,2.1,1.8,2.1,1.7c0-0.1-0.1-0.1-0.1-0.2C1.9,1.4,1.8,1.3,1.7,1.2
		C1.6,1.1,1.6,0.7,1.8,0.6C1.9,0.6,1.9,0.5,2,0.4c0.1-0.1,0.2-0.1,0.3,0c0.1,0.1,0.1,0.2,0,0.3c0,0-0.1,0-0.1,0.1
		C2.1,0.8,2.1,0.9,2.1,1c0,0.2,0,0.3,0,0.5c0,0,0,0.1,0.1,0.1c0.1,0.1,0.2,0.1,0.2,0.2c0.1,0.1,0.1,0.2,0.2,0.3
		c0,0.1,0.1,0.1,0.1,0.2C2.8,2.3,2.9,2.4,3,2.5c0.1,0.1,0.3,0.3,0.4,0.4c0,0,0,0,0,0c0,0,0,0,0,0.1c0,0.1,0,0.1-0.1,0.1c0,0,0,0,0,0
		C3.3,3.3,3.2,3.4,3.1,3.4c0,0,0,0-0.1,0.1c0,0.1-0.1,0.1-0.2,0.1C2.8,3.6,2.7,3.6,2.6,3.6z"/>
</g>
</svg>
