<svg xmlns="http://www.w3.org/2000/svg" viewBox="0 0 120 120" style="">
<g>
	<path d="M90.7,77.1c0.3,0.6,0.6,1.1,1.4,0.3c-0.6,1.5,0.6,2.9-0.8,3.8c-1.5,0.9-5,0.7-6.8,0.8c-2.1,0.2-4.2,0.3-6.4,0.2
		c-1.4-0.1-4.3,0.1-5.5-0.6c-1.7,0.7-3.6-0.2-5.3-0.4c-1.9-0.2-3.8,0-5.7-0.2c-1.8-0.2-3.1-0.9-5-0.9c-2.2,0-4.2-0.4-6.3-0.7
		c-8.3-1-16.9-1.7-25.1-2.8c-1-0.1-3.1-0.6-3.8-1.3c-1-1-1.6-3.8-1.9-5.2c-0.5-1.9-0.2-2.1,0.8-3.4c1.1-1.5,0.9-2.8-1.2-2.5
		c-2.9,0.3-5.7,2.5-5.7,5.6c0,3.3,3.6,7.3,5.5,9.8c-3,0.1-4.5-3.7-5.5-6.1c-0.3-0.7-0.4-1.3-0.7-1.9c-0.1-0.2-0.6,0.1-0.7-0.3
		c-0.5-1.5,0.7-3.1,1.4-4.3c0.8-1.3,1.5-1.8,2.9-2.4c1.1-0.5,3.7-0.8,4.3-1.9c0.3-0.6-0.6-0.8-0.5-1.2s0.7-0.6,0.9-1.1
		c0.2-0.7-0.1-1.4,0.1-2.1c0.2-1,0.8-1.9,1.1-2.9c0.5-1.9-0.1-3.6,0.2-5.4c0.2-1.5,0.5-2.9,0.6-4.4c0.3-2.8,0.4-5.6,0.1-8.5
		c-0.2-2-0.1-2.1-2.4-2.2c-1.3-0.1-3-0.5-0.8-1.1c0.6-0.2,1.4,0.5,2.1,0c0.9-0.6,0.3-0.8,0.5-1.5c0-0.1,1.5-3.7,2.3-2.6
		s-0.6,3,0.6,4c0.9,0.8,4.7,0,5.9,0c2,0,4,0.1,6,0c1.7-0.1,1.9,0.1,1.9-1.3c0-1.3-1.6-3.3-2.3-4.5c-1-1.7-2.1-3.3-3.2-4.9
		c-1.6-2.3-6-6.7-4.7-9.8c-0.3,0.3-1.9,0.6-2.2,0.3c-0.8-0.6-0.4-0.6-0.4-1.4c0-1.5,1.5-3.5,2.5-4.6c0.7-0.8,2.4-2.8,3.5-2.5
		c1.8,0.4,1.4,2.5,0.8,3.7c-0.7,1.4-2.2,2.1-3,3.4c-1,1.6-0.2,2.6,0.7,4.2c2,3.4,4.2,6.6,6.3,9.9c0.9,1.4,2.2,3,2.9,4.4
		c0.7,1.5,0.1,2.5,2.2,3.2c1.6,0.6,4,0,5.7-0.1c2.5-0.1,5,0,7.5,0c2.2,0,6.8,0.4,8.2-1.5c1.6-2.1,2.7-4.5,4.2-6.7
		c0.9-1.3,2-2.5,2.9-3.7c0.5-0.6,0.9-1.1,1.4-1.8c0.4-0.6,0.6-1.1,1-1.7c1.1-1.6,1.2-2.3,1.7-4c0.6-2,2.5-3.2,4.2-4.2
		c1.4-0.8,6.7-4.3,6.9-0.9c0.2,2.7-5,7.3-7.5,7.6c-0.4,0-0.9-0.6-1.3-0.5c-0.8,0.2-1.7,0.9-2.3,1.4c-1.4,1.2-1.8,2.8-2.9,4.3
		c-1.1,1.5-2.4,2.9-3.5,4.4c-1,1.4-2.8,3.1-3.4,4.6c-0.7,1.8-0.1,1.7,1.5,1.7c2.2,0,4.3-0.2,6.5-0.5c4.3-0.5,8.5-1.1,12.8-1.4
		c3.6-0.3,8.1-2.7,9.1,1.7c0.4,1.8,0.5,3.9,0.4,5.7c0,0.8-0.2,1.3-0.4,2c-0.4,0.3-0.6,0.7-0.8,1.2c0.2,0.2,0.4,0.3,0.6,0.4
		c0,0,0.4,1.2,0.5,1.3c0.2,0.9-0.2,1.5-0.2,2.3c-0.1,1.4,0.1,3.3,0,4.9c-0.1,1.9-0.6,3.8-1,5.7c-0.2,1.2-1.3,3.2-0.3,4.2
		c-0.8,0.3-1,3.2-1,4c0,1.7,0.6,1.9,1.8,2.5c3.8,1.8,8.4,1.9,12.3,3.5c7,2.8,8.3,10.7,9.6,17.4c-0.7,0.2-1,3-1.2,3.7
		c-0.3,1.2-0.7,1.6-0.5,2.9c0.3,1.4,0.9,2.4,0.9,3.8c-0.1,4.1-1.5,9.1-4.6,11.8c-2.9,2.6-8.4,4.3-12.2,2.6
		c-5.5-2.6-2.8-8.7,0.1-12.2c2.4-3,7.9-2.7,9.2-6.2c1.5-4,3.1-9.2,1.4-13.5c-1.8-4.4-7.5-5.5-11.6-6.4c-1.4-0.3-4.8-2-5.9-0.4
		c-0.4,0.5,0.2,1.4-0.2,2C91.7,76.2,90.4,76.4,90.7,77.1c-1.1-1.1-0.4-2.3-0.4-3.6c0-2-0.1-0.7-0.6-1.8c-0.3-0.8-1.2-0.1-0.7-1.3
		c0,0,1.2,0,1.3-0.2c0.6-0.6,1.2-2.7,0.6-3.4C90.2,66,89.7,67,89,66.7c-1.2-0.5-1.1-1.3-2.4-1.3c-0.4,0-0.8,0.6-1.2,0.6
		c-1.6,0.1-1.6-1-3.2-1c-2.2,0-4.3,2.1-6.4,2.1c-5.4,0.2,1.9-6.7-3.1-5.4c-1.2,0.3-2.6,1.7-3.8,1.5c-0.7-0.1-0.8-0.8-1.5-0.9
		c-0.9-0.1-2.2,1.2-3.1,0.8c-1.7-0.8,0.6-2.1-2.1-1.4c-1,0.3-2.4,1.9-3.4,1.2c-1.6-1.2,1-2.7-1.9-1.7c-0.7,0.2-2,1.6-2.8,1.1
		c-1.2-0.8,0.8-2.5-1.2-2.4c-0.8,0.1-1.3,1.5-2.1,1.5c-0.6,0.1-0.9-0.2-1.3-0.2c-0.1-0.5-0.3-0.7-0.8-0.6c-0.4,0.2-0.8,0.4-1.3,0.5
		c-0.7,0.3-1.5,0.9-2.3,1.1c-0.6,0.1-1.2-0.3-1.9-0.2s-1.2,0.7-1.9,0.9c-1.9,0.4-1.3-1.3-2.7-1.3c-0.6,0-1.8,2.2-2.7,1.9
		c-1-0.4,0.3-0.7-0.2-1.2c-0.5-0.6-0.7-0.3-1.4-0.7c-1.1-0.6-2.1-1.5-3.3-1.9c-1.6-0.5-3.1-0.3-4.5,0.4c-0.9,0.5-2.6,1.2-3.2,2
		c-0.9,1.2,0.2,2.5-0.2,3.5c-0.2,0.5-0.9,1-1.2,1.4c-1.2,1.2-1.6,1.1-1.1,3c0.4,1.8,1,3.2,2.3,4.4c1.4,1.2,1,0.5,2.3,0.6
		c2.5,0.3,5.3,0.2,7.7,0.9c0.8,0.2,1.1,0.6,1.9,0.7c0.5,0,1.4-0.3,2-0.4c1,0,1.9,0.5,2.9,0.6c0.8,0.1,1.3-0.1,2.1,0
		c1.6,0.2,3.3,0.3,4.9,0.5c3.6,0.5,7.3,1,10.7,1.6c0.4-0.4,0.9-0.5,1.5-0.4c0.2,0.2,0.4,0.4,0.7,0.7c0.7,0.1,0.8,0,1.7,0
		c2.1,0.1,4.1,0.5,6.2,0.8c4.9,0.7,10.1,0.7,15,0.6c1.3,0,4.9,0.2,5.9-0.6C89.7,79.5,89.1,77.6,90.7,77.1z M93.6,33.7
		c0.7-3-2.3-2.4-3.9-2.2c-2.6,0.3-5.3,0.7-7.9,1.1c-4.9,0.6-9.8,0.9-14.7,1.5c-11.2,1.3-23,0.7-34.3,0.5c-1.5,0-6.7-1-7.6,0.5
		c-0.7,1.2,0,5.1-0.1,6.5c-0.3,4.5-0.4,8.9-0.8,13.3c-0.2,1.5-1.6,4.8,0,5.1c1.9,0.4,4.2-2.8,6-3s0.1,0.5,1,1.9
		c0.4,0.7,3.5,2,4.2,2.3c1.3,0.4,2.5,0.4,3.7-0.2c0.1-0.1,1.6-1.4,2-1.1c1,1-1.2,1.8,0.7,1.9c1.1,0,3.2-1.4,4.1-1.6
		c-0.3,0.1,0.9,0.2,0.9,0.2c0.3,0,1.5-0.8,1.9-1c1.6-0.8,2-0.2,3.4-0.3c0.8-0.1,3-2.9,3.7-1.5c0.3,0.7-1.4,2.2-0.7,2.9
		c0.4,0.4,3.4-1.8,4-1.9c3.2-0.6-0.1,1,1.1,2c0.8,0.7,3.2-1.7,4.2-1.6c2.2,0.1,0.1,1.1,0.8,2.2c0.7,1,2.5-0.9,3.3-1
		c2.1-0.4,0.4,0.6,1.9,1c0.8,0.2,1.9-0.6,2.5-0.8c1.2-0.5,3.7-1.9,3.8,0.3c0,1.4-2.7,3.1-2,4.6c0.7,1.6,2.8,0.2,4.1-0.3
		c1.8-0.6,4.1-2.4,5.9-2c0.9,0.2,0.3,1,1.5,1c0.6,0,1.3-1,1.9-1c1.4,0.2,0.7,1.9,2.1,1.9c1.4,0.1,1.3-3.4,1.4-4.3
		C93,51.8,93.2,42.8,93.6,33.7z M99.9,105.7c-3.2-0.7,1.5-0.9,2.7-0.8c2,0.2,7.7,2.2,9.4,0.6c0.8-0.8,1.5-5.3,1.2-6.4
		c-0.4-1.4-0.9-0.5-1.8-1.2c-0.5-0.4-0.2-1.1-0.7-1.5c-1.7-1.2-6.5,1.1-7.9,1.9c-2.4,1.5-4.2,3.6-5.3,6.2c-0.6,1.3-1.2,2.8-0.7,4.2
		c0.6,1.6,1.6,2,2.8,1.1c0.5-0.4,2.2-2.3,2.3-3C102.2,105.4,101.1,105.7,99.9,105.7z M111,85.6c0,2.1-0.3,4.2-0.9,6.3
		c-0.2,0.8-1.6,3.1-1.1,3.8c2.2,2.6,3.8-5.9,4.2-6.8c2.3-5.6-0.7-14.6-6.4-17.1c-1.9-0.8-3.9-1.5-5.8-2.1c-1.6-0.5-4.8-2.2-6.5-2.1
		c-1.5,0.1-1.8,0.9-1.3,2.5c0.5,1.8,1.2,1.5,3.2,1.9c3.9,0.8,8.6,1.4,11.7,4.2C110.9,78.9,111.3,81.8,111,85.6z M104.4,111.7
		c2.1,0.4,5.6-1.6,6.5-3.4c1.2-2.3-2.2-1.2-4-1.6c-3.1-0.6-4.8,0.5-6.1,3.5C99.6,113,102.7,111.6,104.4,111.7z M79.3,13.1
		c-2.2,1,0.4,1.9,0.7,0.3C79.9,13.1,79.7,13,79.3,13.1z M76.3,14.7c-0.3-0.7-1.1-0.3-1,0.4C75.5,15.7,76.6,15.5,76.3,14.7z"/>
	<path d="M9.3,100.6c1.9-2.6,2.2-5.6,3.1-8.6c0.3-0.8,2.6-4.2,1.9-5.1c-0.7-0.9-2.4,1.6-3.1,0.1c-0.4-0.8,1.2-1.3,1.2-2.1
		c0-1.6-3.5-4.3-4.4-5.7C6,75.9,4.2,72,5.7,68c2-5.4,8.3-5.8,13.1-6.8c-0.5,1-3.8,1.2-4.8,1.5c-1.9,0.5-3.9,1-5.3,2.4
		c-2.4,2.4-2.9,7-1.7,10c0.6,1.4,3.3,7.4,5.1,7.1c1.2-0.2,1.4-2.2,2.6-2.4c1.9-0.3,2.2,2.5,3.8,2.6c-1.1,0.3-1.5,0.5-1.7,1.8
		c-0.3,1.5,0,0.9,1.2,1.8c-0.5,0.9-1.2,0.6-1.9,1.2c-0.5,0.4-0.7,1.3-0.9,1.9c-1,2.6-1.6,5.3-2.5,7.9c-0.2,0.7-1.3,2.4-1.2,3.1
		c0.2,1.1,1.2,1,2.3,1.2c2.6,0.5,5.3,0.8,7.8,1.4c4.7,1.2,8.7,1.6,13.6,1.7c2.6,0.1,5.1-0.4,7.6-0.5c0.5,0,2.6,0.2,2.9-0.3
		c0.4-0.8-0.9-0.4-1-0.9c-0.4-1.4,2.3-3.4,3.8-2.7c2.7,1.3-1.8,2.4-1.2,3.7c0.4,0.9,4.7,0.3,5.7,0.3c0.8,0,2.7,0.4,3.5-0.1
		c0.8-0.4,0.9-1.3,1.6-1.9c1.3-0.9,3.5-0.4,4.5,0.7c0.7,0.8-0.8,0.7,0.4,1.5c0.8,0.5,3.4,0,4.3,0c2.1-0.1,4.7,0.3,6.2-1.3
		c1.7-1.7,1.3-5.1,1.6-7.3c0.2-1.1,1.7-5.1,1.2-5.7c-0.6-0.8-6.1-0.2-7.3-0.2c-4.9,0-9.9,0.3-14.8,0.4c-1.9,0-3.7-0.8-5.5-1.1
		c-0.4-0.1-0.9,0.4-1.5,0.3c-1.2-0.1-2.9-0.8-4.1-1c-1-0.2-5.1-0.8-3.1-1.8c0.1-0.1,1.7,0.1,1.9,0.1c1.4,0.1,2.1,0.6,3.3,0.9
		c1.9,0.5,4.5,0.4,6.6,0.5c1.1,0,1.6,0.2,2.6,0.4c0.7,0.2,2,0.8,2.7,0.8c0.6,0,1.4-0.5,2-0.6c1.2-0.2,2.3,0.5,3.3,0.4
		c1.4-0.1,2.5-1.2,4.2-1.1c2.4,0.1,4.5,0.5,6.9,0.2c1-0.1,3.6-0.9,4.2,0c0.8,1.2-1.2,5.3-1.6,6.6c-0.7,2.5-0.9,5-1.6,7.5
		c-0.9,3-1.3,2.9-4.3,3.1c-2.9,0.2-5.9,0.2-8.9,0.3c-6.2,0.2-12.4,0.5-18.6,0.4c-5.8,0-12.5,0.4-18.2-1.2c-2.5-0.7-5-1.5-7.5-2.2
		C14.7,101.8,11.7,102.1,9.3,100.6z M14,84.7c1.6,0.1,3.5-3.9,1.2-3.6c0.8-0.1-1.6,2.1-1.3,1.6C13.6,83.3,12.7,84.5,14,84.7z"/>
	<path d="M34.5,102.2c-0.5,0.1-3.1,0.3-2.2-1.2c0.3-0.5,1.5,0.1,1.9-0.1c0.7-0.2,1.2-0.9,1.9-1.2c0.9-0.3,2.7-0.7,2.5,0.9
		C38.4,102,35.4,102.4,34.5,102.2z"/>
	<path d="M26,84c0.9-0.2,1,0.2,1.7,0.2c0.5,0,1-0.4,1.5-0.4c0.8,0,1.4,0.5,2.2,0.7c0.7,0.2,7.2,1,6.4,2c-0.1,0.2-1.9-0.3-2.2-0.3
		s-0.7-0.5-0.9-0.5s-0.3,0.5-0.6,0.5C31.7,85.9,27.9,85.3,26,84z"/>
	<path d="M29.8,99c2.2,0-1,3.1-2.6,3.1c-0.9,0-2.1-0.3-1.9-1.3C25.4,100.2,29.2,99.4,29.8,99z"/>
	<path d="M26.7,88.1c0.6-1.1,0.5-0.6,1.7-0.9c0.9-0.2,2.7-1.3,3.3,0.2c0.3,1-0.5,1.2-1.1,1.4c0.4-0.1-3.5,0-3,0.2
		C27,88.8,26.6,89.3,26.7,88.1z"/>
	<path d="M27.1,91.6c-0.4,0.9-3.5,5.1-3.2,1.3c0.1-0.9,1-1.6,1.8-1.8C27.3,90.9,26.4,90.9,27.1,91.6z"/>
	<path d="M63.7,95.8c-0.2-1.2,4.1-3.1,4.3-2.2C68.2,94.5,63.4,98.1,63.7,95.8z"/>
	<path d="M51.2,92.7c2.9,0.3-2,3-2.7,2.8C46.4,95.1,49.8,92.3,51.2,92.7z"/>
	<path d="M18.8,89.3c0-1.5,2.7-3.3,3-1.4c0.1,0.7-1.1,1.8-1.7,2C18.8,90.4,19.2,90.3,18.8,89.3z"/>
	<path d="M43.1,92.8c-0.5,0.7-5.2,2.2-4.9,1C38.5,92.7,42.8,90.8,43.1,92.8z"/>
	<path d="M18.8,98.9c-2-0.7,0.1-2.3,1.6-2.4C23.2,96.5,20,98.5,18.8,98.9z"/>
	<path d="M59.6,93.1c0,0.7-2.5,2-3.1,1.7C54.8,94,59.7,91.9,59.6,93.1z"/>
	<path d="M68.8,103.1c-0.2,0.1-0.5-2.3,0.6-2.4c0.4,0,1.4,0.8,1.4,1.1C70.9,102.4,69.1,102.9,68.8,103.1z"/>
	<path d="M34.3,93.3c-1.5-1.4-1.9,1.1-2.3,1.2c-0.6,0.1-1.3,0.3-0.8-1c0.3-0.8,2-1.4,2.8-1.1C34.6,92.6,35.3,93.3,34.3,93.3z"/>
	<path d="M20.9,82.8c0.6-0.7,4.2-0.1,4.2,0.7C25.1,84.5,21.5,83.2,20.9,82.8z"/>
	<path d="M39.5,56.1c-2.6,0.2-6.4-1.5-7.4-3.8c-0.9-2.3-0.1-5,1.6-6.7c2.3-2.5,4.9-4.7,8-6.2c2.9-1.5,4.6-1.7,6,1.3
		c0.4,0.9,1,2.5,2.2,2.6c0.8,0.1,1.5-1.2,2.3-0.8c1.5,0.9-0.6,2,0,3c0.7,1.3,2.5,0,0.7,2c-0.7,0.9-1.3,1.3-1.9,2.3
		c-0.5,0.9-0.9,1.7-1.8,2.5C46.7,54.6,42.9,56.4,39.5,56.1z M43.3,47.4c-1.7,0.5-3,1.8-4.7,2.4c0.5-0.6,1.5-0.7,1.8-1.6
		c-1.4-0.3-3.1,2.3-4.2,2.8c-0.3,0.2-3.8,0.1-1.7,1.6C35.8,53.5,43.6,49.2,43.3,47.4c1.4,0.3,6.5-3.8,2.6-3.9
		c-0.8,0-3.5,1.5-3.6,2.5C42.2,46.9,43.5,46.4,43.3,47.4z M39.7,42.1c1.2-0.1,7.5,0,6.4-2.6C45.2,37.4,40.3,41.3,39.7,42.1z
		 M35.6,46.1c1.9-0.7,3.9-1.3,5.4-2.8C38.8,43.3,37,44.3,35.6,46.1z M41.8,51.8c0.4-0.2,5.4-2.6,4-3.1
		C44.5,48.2,42.1,50.9,41.8,51.8z M41.7,53.5c-0.7,0.5-1.5,0.5-2,1.2C41.4,55.4,41.5,55.3,41.7,53.5z M37.2,53.1
		c-0.4,0.3-1.8,1.5-0.2,1.4C37.8,54.4,38.1,53.2,37.2,53.1z"/>
	<path d="M77.1,46.9c-1.5-1.1-1.6,1.3-2.1,2.1c-1,1.4-3.1,2.4-4.6,3.1c-2.1,1.1-8.8,4.3-10.6,1.6C55.1,47,77.3,43.6,77.1,46.9z
		 M61.4,51.8c-1.8,0.8-0.2,2.6,0.6,2.1C62.3,53.8,61.4,51.9,61.4,51.8z"/>
</g>
</svg>
